<?xml version="1.0" standalone="no"?> <!DOCTYPE svg PUBLIC "-//W3C//DTD SVG 1.0//EN" "http://www.w3.org/TR/2001/REC-SVG-20010904/DTD/svg10.dtd" > <svg xmlns="http://www.w3.org/2000/svg" width="100%" height="100%">
<defs >
<font horiz-adv-x="876" ><font-face
    font-family="Comictastic"
    units-per-em="2048"
    panose-1="2 0 5 0 0 0 0 0 0 0"
    ascent="1706"
    descent="-229"
    alphabetic="0" />
<missing-glyph horiz-adv-x="1500" />
<glyph unicode=" " glyph-name="space" horiz-adv-x="508" />
<glyph unicode="!" glyph-name="exclam" horiz-adv-x="499" d="M162 521L124 1289L474 1342L341 509L162 521ZM333 377T396 329T460 213Q460 145 397 97T243 49Q152 49 89 97T25 213Q25 281 88 329T243 377Q333 377 396 329Z" />
<glyph unicode="&quot;" glyph-name="quotedbl" horiz-adv-x="753" d="M256 1381L255 966L72 919L25 1313L256 1381ZM728 1337L662 921L510 967L501 1388L728 1337Z" />
<glyph unicode="#" glyph-name="numbersign" horiz-adv-x="946" d="M116 593L131 763L31 765L25 896L144 910L176 1267L376 1322L319 928L550 959L585 1389L843 1427L765 984L921 1003L840 745L723 748L694 587L831 586L762 362L657 380L608 101L483 133L505 407L247
456L196 101L71 84L106 476L45 487L28 594L116 593ZM294 759L270 592L520 589L533 753L294 759Z" />
<glyph unicode="$" glyph-name="dollar" horiz-adv-x="910" d="M305 1290L275 1479L490 1551L484 1342Q560 1357 648 1366L684 1124Q369 1133 287 997T544 767T880 339Q876 87 516 11L551 -119L296 -195L338 -14Q291 -18 240 -20L164 234Q578 235 650 402T374
629T51 999Q68 1195 305 1290Z" />
<glyph unicode="%" glyph-name="percent" horiz-adv-x="907" d="M796 1249L283 142L65 325L663 1288L796 1249ZM276 1226T328 1181T380 1071Q380 1007 328 962T202 916Q129 916 77 961T25 1071Q25 1135 77 1180T202 1226Q276 1226 328 1181ZM778 639T830 594T882
484Q882 420 830 375T704 329Q631 329 579 374T527 484Q527 548 579 593T704 639Q778 639 830 594Z" />
<glyph unicode="&amp;" glyph-name="ampersand" horiz-adv-x="728" d="M414 850L703 897L667 600H416V344L297 322L290 600H41L25 759L274 818L260 1116L432 1152L414 850Z" />
<glyph unicode="&apos;" glyph-name="quotesingle" horiz-adv-x="298" d="M273 1291L201 883L61 894L25 1257L273 1291Z" />
<glyph unicode="(" glyph-name="parenleft" horiz-adv-x="708" d="M25 1512T527 1570L556 1400Q290 1412 307 757T683 133L648 -163Q93 -229 59 641Z" />
<glyph unicode=")" glyph-name="parenright" horiz-adv-x="708" d="M615 -229T60 -163L25 133Q383 102 401 757T153 1400L181 1570Q683 1512 649 642Z" />
<glyph unicode="*" glyph-name="asterisk" horiz-adv-x="728" d="M414 1218L703 1265L667 968H416V712L297 690L290 968H41L25 1127L274 1186L260 1484L432 1520L414 1218Z" />
<glyph unicode="+" glyph-name="plus" horiz-adv-x="728" d="M414 850L703 897L667 600H416V344L297 322L290 600H41L25 759L274 818L260 1116L432 1152L414 850Z" />
<glyph unicode="," glyph-name="comma" horiz-adv-x="341" d="M313 243L316 -172L25 -200L124 248L313 243Z" />
<glyph unicode="-" glyph-name="hyphen" horiz-adv-x="693" d="M668 859L632 571L42 646L25 807L668 859Z" />
<glyph unicode="." glyph-name="period" horiz-adv-x="405" d="M276 357T328 312T380 202Q380 138 328 93T202 47Q129 47 77 92T25 202Q25 266 77 311T202 357Q276 357 328 312Z" />
<glyph unicode="/" glyph-name="slash" horiz-adv-x="892" d="M867 1400L290 -47L25 155L682 1504L867 1400Z" />
<glyph unicode="0" glyph-name="zero" horiz-adv-x="1193" d="M597 100Q356 100 191 278T25 700Q25 944 190 1122T597 1300Q837 1300 1002 1122T1168 700Q1168 456 1003 278T597 100ZM697 337T804 452T911 737Q911 907 804 1022T552 1137Q407 1137 300 1022T192
737Q192 567 299 452T552 337Q697 337 804 452Z" />
<glyph unicode="1" glyph-name="one" horiz-adv-x="548" d="M523 119L156 138L263 1110L84 915L25 1158L402 1377L523 119Z" />
<glyph unicode="2" glyph-name="two" horiz-adv-x="973" d="M520 318L792 346L851 -8L25 98Q785 865 658 1049T216 1225L252 1467Q823 1408 885 1131T520 318Z" />
<glyph unicode="3" glyph-name="three" horiz-adv-x="787" d="M708 576T688 335T64 24L25 312Q644 308 190 573L484 1188L76 1138L98 1333L762 1385L443 638Q708 576 688 335Z" />
<glyph unicode="4" glyph-name="four" horiz-adv-x="921" d="M664 1432V700L896 692L862 460L669 486L684 123L391 78L452 528L25 598L664 1432ZM480 713L507 953L341 728L480 713Z" />
<glyph unicode="5" glyph-name="five" horiz-adv-x="910" d="M885 661T859 353T262 -15L226 227Q541 218 603 377T25 677L35 1354L861 1460L802 1106L302 1163L273 801Q885 661 859 353Z" />
<glyph unicode="6" glyph-name="six" horiz-adv-x="987" d="M127 357Q25 643 138 1259L416 1198L244 772H245Q367 887 538 887Q714 887 838 765T962 468Q962 295 838 172T538 49Q362 49 237 172Q155 253 127 357ZM481 684Q398 684 340 626T281 484Q281 401 339
343T481 284Q564 284 622 342T681 484Q681 567 623 625T481 684Z" />
<glyph unicode="7" glyph-name="seven" horiz-adv-x="864" d="M608 573L457 35L130 207L332 621L135 655L137 787L419 801L580 1130L86 1049L25 1310L839 1392L676 813L839 821L768 545L608 573Z" />
<glyph unicode="8" glyph-name="eight" horiz-adv-x="795" d="M575 826Q621 801 661 761Q770 652 770 497Q770 343 661 234T398 125Q243 125 134 234T25 497Q25 652 134 761Q170 797 212 822Q191 836 171 855Q80 942 80 1065Q80 1188 171 1275T391 1362Q519 1362
610 1275T701 1065Q701 942 610 855Q593 839 575 826ZM354 1218Q298 1218 259 1181T219 1092Q219 1040 258 1003T354 966Q410 966 449 1003T489 1092Q489 1144 450 1181T354 1218ZM366 739Q289 739 236 687T182 560Q182 485 235 433T366 380Q442 380 496 432T550
560Q550 634 496 686T366 739Z" />
<glyph unicode="9" glyph-name="nine" horiz-adv-x="987" d="M860 951Q962 665 849 49L571 110L743 536H741Q619 421 449 421Q273 421 149 543T25 840Q25 1013 149 1136T449 1259Q625 1259 750 1136Q832 1055 860 951ZM506 624Q589 624 647 682T706 824Q706 907
648 965T506 1024Q423 1024 365 966T306 824Q306 741 364 683T506 624Z" />
<glyph unicode=":" glyph-name="colon" horiz-adv-x="408" d="M279 1099T331 1054T383 944Q383 880 331 835T205 789Q132 789 80 834T28 944Q28 1008 80 1053T205 1099Q279 1099 331 1054ZM276 604T328 559T380 449Q380 385 328 340T202 294Q129 294 77 339T25
449Q25 513 77 558T202 604Q276 604 328 559Z" />
<glyph unicode=";" glyph-name="semicolon" horiz-adv-x="405" d="M333 589L336 174L45 146L144 594L333 589ZM276 1099T328 1054T380 944Q380 880 328 835T202 789Q129 789 77 834T25 944Q25 1008 77 1053T202 1099Q276 1099 328 1054Z" />
<glyph unicode="&lt;" glyph-name="less" horiz-adv-x="694" d="M547 1272L669 1027L238 649L611 452L550 241L25 610L547 1272Z" />
<glyph unicode="=" glyph-name="equal" horiz-adv-x="673" d="M648 1167L573 887L44 920L25 1108L648 1167ZM607 478L595 256L32 294L72 526L607 478Z" />
<glyph unicode="&gt;" glyph-name="greater" horiz-adv-x="693" d="M668 610L143 241L82 452L455 649L25 1027L147 1272L668 610Z" />
<glyph unicode="?" glyph-name="question" horiz-adv-x="873" d="M219 775Q571 806 587 1008T62 1058L25 1254Q780 1513 818 1100Q848 779 382 631L483 469L249 421L219 775ZM508 369T571 321T635 205Q635 137 572 89T418 41Q327 41 264 89T200 205Q200 273 263
321T418 369Q508 369 571 321Z" />
<glyph unicode="@" glyph-name="at" horiz-adv-x="1219" d="M512 730L382 1159L230 674L512 730ZM740 497L597 411L538 609L188 526L158 420L25 520L295 1312L448 1327L746 570L789 1159L535 1186L545 1329L1194 1377L1173 1120L903 1155L934 469L734 404L740
497ZM1087 393L1061 183L87 200L66 345L1087 393Z" />
<glyph unicode="A" glyph-name="A" horiz-adv-x="1011" d="M236 287L197 149L25 279L374 1304L572 1322L986 270L765 138L689 395L236 287ZM655 551L486 1106L290 478L655 551Z" />
<glyph unicode="B" glyph-name="B" horiz-adv-x="1024" d="M179 790Q584 885 575 1108T161 1137L179 790ZM213 252Q679 275 631 440T194 622L213 252ZM25 93L51 1227Q526 1469 689 1269T536 753Q999 575 888 302T25 93Z" />
<glyph unicode="C" glyph-name="C" horiz-adv-x="1110" d="M997 281Q830 100 592 100Q354 100 190 278T25 700Q25 944 189 1122T592 1300Q830 1300 997 1119Q1080 1030 1079 1034L859 965Q858 969 794 1038Q690 1150 546 1150Q402 1150 295 1035T188 750Q188 580
295 465T546 350Q690 350 794 462Q852 526 848 514L1085 383Q1080 370 997 281Z" />
<glyph unicode="D" glyph-name="D" horiz-adv-x="978" d="M69 100L25 1300Q953 1300 953 700T69 100ZM186 1129L261 389Q758 387 758 758T186 1129Z" />
<glyph unicode="E" glyph-name="E" horiz-adv-x="819" d="M710 1460L723 1139L224 1072L241 753L564 889L580 529L244 599L261 302L754 349L794 96L25 63L109 1318L710 1460Z" />
<glyph unicode="F" glyph-name="F" horiz-adv-x="664" d="M639 1422L599 1079L179 1107L227 809L481 910L498 565L244 632L324 151L100 113L25 1236L639 1422Z" />
<glyph unicode="G" glyph-name="G" horiz-adv-x="1186" d="M1161 603Q1134 420 1003 278Q837 100 597 100Q356 100 191 278T25 700Q25 944 190 1122T597 1300Q827 1300 989 1137L820 1004Q812 1013 804 1022Q697 1137 552 1137Q407 1137 300 1022T192 737Q192
567 299 452T552 337Q697 337 804 452Q821 470 835 489L499 502L525 745L1161 603Z" />
<glyph unicode="H" glyph-name="H" horiz-adv-x="1090" d="M225 514L221 157L69 124L25 1064L208 1162L218 710L702 782L706 1198L1065 1153L896 139L695 213L699 570L225 514Z" />
<glyph unicode="I" glyph-name="I" horiz-adv-x="485" d="M346 1284L416 125L130 57L148 1265L346 1284ZM333 1706T396 1658T460 1542Q460 1474 397 1426T243 1378Q152 1378 89 1426T25 1542Q25 1610 88 1658T243 1706Q333 1706 396 1658Z" />
<glyph unicode="J" glyph-name="J" horiz-adv-x="1015" d="M541 1270L833 1286Q990 138 416 100Q49 100 25 529L214 609Q205 300 428 300Q773 412 541 1270ZM738 1703T801 1655T865 1539Q865 1471 802 1423T648 1375Q557 1375 494 1423T430 1539Q430 1607 493
1655T648 1703Q738 1703 801 1655Z" />
<glyph unicode="K" glyph-name="K" d="M217 684L557 1381L851 1327L424 675L832 358L615 141L233 505L247 170L25 121V1288L203 1280L217 684Z" />
<glyph unicode="L" glyph-name="L" horiz-adv-x="623" d="M109 1315L334 1300L201 280L598 357L547 51L25 87L109 1315Z" />
<glyph unicode="M" glyph-name="M" horiz-adv-x="1228" d="M1145 1307L1203 172L956 146L967 1127L710 338L461 295L198 1126L226 175L25 124L69 1312L303 1351L577 541L861 1332L1145 1307Z" />
<glyph unicode="N" glyph-name="N" horiz-adv-x="1167" d="M208 1061L328 201L93 126L25 1230L306 1291L814 451L820 1310L1142 1351L990 88L782 50L208 1061Z" />
<glyph unicode="O" glyph-name="O" horiz-adv-x="1193" d="M597 100Q356 100 191 278T25 700Q25 944 190 1122T597 1300Q837 1300 1002 1122T1168 700Q1168 456 1003 278T597 100ZM697 337T804 452T911 737Q911 907 804 1022T552 1137Q407 1137 300 1022T192 737Q192
567 299 452T552 337Q697 337 804 452Z" />
<glyph unicode="P" glyph-name="P" horiz-adv-x="1004" d="M267 503L337 181L92 120L25 1255Q934 1438 979 895Q979 500 267 503ZM160 1075L247 700Q839 700 794 949T160 1075Z" />
<glyph unicode="Q" glyph-name="Q" horiz-adv-x="1217" d="M819 469Q911 579 911 737Q911 907 804 1022T552 1137Q407 1137 300 1022T192 737Q192 567 299 452T552 337Q616 337 673 359L568 525L667 618L819 469ZM810 141Q712 100 597 100Q356 100 191 278T25
700Q25 944 190 1122T597 1300Q837 1300 1002 1122T1168 700Q1168 459 1007 283L1192 101L980 -128L810 141Z" />
<glyph unicode="R" glyph-name="R" horiz-adv-x="1069" d="M245 1185L265 700Q821 700 821 900Q821 1087 245 1185ZM296 167L25 119L104 1389Q988 1306 1016 969T520 509L923 163L743 -36L276 511L296 167Z" />
<glyph unicode="S" glyph-name="S" horiz-adv-x="910" d="M25 690T51 998T648 1366L684 1124Q369 1133 287 997T544 767T880 339T240 -20L164 234Q578 235 650 402T374 629Z" />
<glyph unicode="T" glyph-name="T" horiz-adv-x="903" d="M501 1086L542 198L282 114L353 1091L25 1126L38 1310L878 1372L850 1040L501 1086Z" />
<glyph unicode="U" glyph-name="U" horiz-adv-x="1376" d="M259 1214L523 1149Q305 313 687 300Q1110 304 968 1178L1202 1270Q1351 111 687 100Q25 108 259 1214Z" />
<glyph unicode="V" glyph-name="V" horiz-adv-x="1018" d="M390 108L25 1015L229 1232L495 370L716 1184L993 1086L619 142L390 108Z" />
<glyph unicode="W" glyph-name="W" horiz-adv-x="1737" d="M888 913L649 91L441 56L25 1085L269 1256L549 381L792 1122L997 1087L1196 388L1432 1281L1712 1090L1308 114L1059 181L888 913Z" />
<glyph unicode="X" glyph-name="X" horiz-adv-x="885" d="M345 704L30 1137L198 1265L416 858L639 1266L860 1102L523 677L842 217L651 122L426 524L193 122L25 200L345 704Z" />
<glyph unicode="Y" glyph-name="Y" horiz-adv-x="942" d="M366 637L25 1067L207 1254L457 797L667 1374L917 1267L521 631L539 17L212 121L366 637Z" />
<glyph unicode="Z" glyph-name="Z" horiz-adv-x="843" d="M818 1203L360 379L797 354L792 49L34 209L571 1030L25 1100L84 1361L818 1203Z" />
<glyph unicode="[" glyph-name="bracketleft" horiz-adv-x="546" d="M443 1566L414 1290L205 1321L253 167H497L521 -100L25 -114L54 1518L443 1566Z" />
<glyph unicode="\" glyph-name="backslash" horiz-adv-x="849" d="M181 1476L824 123L572 -62L25 1348L181 1476Z" />
<glyph unicode="]" glyph-name="bracketright" horiz-adv-x="526" d="M492 1518L501 -120L25 -100L48 167H293L341 1321L131 1290L102 1566L492 1518Z" />
<glyph unicode="^" glyph-name="asciicircum" horiz-adv-x="595" d="M570 1148L413 1041L304 1262L207 959L25 1059L275 1527L570 1148Z" />
<glyph unicode="_" glyph-name="underscore" d="M851 353L837 59L54 76L25 305L851 353Z" />
<glyph unicode="a" glyph-name="a" horiz-adv-x="1011" d="M236 287L197 149L25 279L374 1304L572 1322L986 270L765 138L689 395L236 287ZM655 551L486 1106L290 478L655 551Z" />
<glyph unicode="b" glyph-name="b" horiz-adv-x="1024" d="M179 790Q584 885 575 1108T161 1137L179 790ZM213 252Q679 275 631 440T194 622L213 252ZM25 93L51 1227Q526 1469 689 1269T536 753Q999 575 888 302T25 93Z" />
<glyph unicode="c" glyph-name="c" horiz-adv-x="1110" d="M997 281Q830 100 592 100Q354 100 190 278T25 700Q25 944 189 1122T592 1300Q830 1300 997 1119Q1080 1030 1079 1034L859 965Q858 969 794 1038Q690 1150 546 1150Q402 1150 295 1035T188 750Q188 580
295 465T546 350Q690 350 794 462Q852 526 848 514L1085 383Q1080 370 997 281Z" />
<glyph unicode="d" glyph-name="d" horiz-adv-x="978" d="M69 100L25 1300Q953 1300 953 700T69 100ZM186 1129L261 389Q758 387 758 758T186 1129Z" />
<glyph unicode="e" glyph-name="e" horiz-adv-x="819" d="M710 1460L723 1139L224 1072L241 753L564 889L580 529L244 599L261 302L754 349L794 96L25 63L109 1318L710 1460Z" />
<glyph unicode="f" glyph-name="f" horiz-adv-x="664" d="M639 1422L599 1079L179 1107L227 809L481 910L498 565L244 632L324 151L100 113L25 1236L639 1422Z" />
<glyph unicode="g" glyph-name="g" horiz-adv-x="1186" d="M1161 603Q1134 420 1003 278Q837 100 597 100Q356 100 191 278T25 700Q25 944 190 1122T597 1300Q827 1300 989 1137L820 1004Q812 1013 804 1022Q697 1137 552 1137Q407 1137 300 1022T192 737Q192
567 299 452T552 337Q697 337 804 452Q821 470 835 489L499 502L525 745L1161 603Z" />
<glyph unicode="h" glyph-name="h" horiz-adv-x="1090" d="M225 514L221 157L69 124L25 1064L208 1162L218 710L702 782L706 1198L1065 1153L896 139L695 213L699 570L225 514Z" />
<glyph unicode="i" glyph-name="i" horiz-adv-x="485" d="M346 1284L416 125L130 57L148 1265L346 1284ZM333 1706T396 1658T460 1542Q460 1474 397 1426T243 1378Q152 1378 89 1426T25 1542Q25 1610 88 1658T243 1706Q333 1706 396 1658Z" />
<glyph unicode="j" glyph-name="j" horiz-adv-x="1015" d="M541 1270L833 1286Q990 138 416 100Q49 100 25 529L214 609Q205 300 428 300Q773 412 541 1270ZM738 1703T801 1655T865 1539Q865 1471 802 1423T648 1375Q557 1375 494 1423T430 1539Q430 1607 493
1655T648 1703Q738 1703 801 1655Z" />
<glyph unicode="k" glyph-name="k" d="M217 684L557 1381L851 1327L424 675L832 358L615 141L233 505L247 170L25 121V1288L203 1280L217 684Z" />
<glyph unicode="l" glyph-name="l" horiz-adv-x="623" d="M109 1315L334 1300L201 280L598 357L547 51L25 87L109 1315Z" />
<glyph unicode="m" glyph-name="m" horiz-adv-x="1228" d="M1145 1307L1203 172L956 146L967 1127L710 338L461 295L198 1126L226 175L25 124L69 1312L303 1351L577 541L861 1332L1145 1307Z" />
<glyph unicode="n" glyph-name="n" horiz-adv-x="1167" d="M208 1061L328 201L93 126L25 1230L306 1291L814 451L820 1310L1142 1351L990 88L782 50L208 1061Z" />
<glyph unicode="o" glyph-name="o" horiz-adv-x="1193" d="M597 100Q356 100 191 278T25 700Q25 944 190 1122T597 1300Q837 1300 1002 1122T1168 700Q1168 456 1003 278T597 100ZM697 337T804 452T911 737Q911 907 804 1022T552 1137Q407 1137 300 1022T192 737Q192
567 299 452T552 337Q697 337 804 452Z" />
<glyph unicode="p" glyph-name="p" horiz-adv-x="1004" d="M267 503L337 181L92 120L25 1255Q934 1438 979 895Q979 500 267 503ZM160 1075L247 700Q839 700 794 949T160 1075Z" />
<glyph unicode="q" glyph-name="q" horiz-adv-x="1217" d="M819 469Q911 579 911 737Q911 907 804 1022T552 1137Q407 1137 300 1022T192 737Q192 567 299 452T552 337Q616 337 673 359L568 525L667 618L819 469ZM810 141Q712 100 597 100Q356 100 191 278T25
700Q25 944 190 1122T597 1300Q837 1300 1002 1122T1168 700Q1168 459 1007 283L1192 101L980 -128L810 141Z" />
<glyph unicode="r" glyph-name="r" horiz-adv-x="1069" d="M245 1185L265 700Q821 700 821 900Q821 1087 245 1185ZM296 167L25 119L104 1389Q988 1306 1016 969T520 509L923 163L743 -36L276 511L296 167Z" />
<glyph unicode="s" glyph-name="s" horiz-adv-x="910" d="M25 690T51 998T648 1366L684 1124Q369 1133 287 997T544 767T880 339T240 -20L164 234Q578 235 650 402T374 629Z" />
<glyph unicode="t" glyph-name="t" horiz-adv-x="903" d="M501 1086L542 198L282 114L353 1091L25 1126L38 1310L878 1372L850 1040L501 1086Z" />
<glyph unicode="u" glyph-name="u" horiz-adv-x="1376" d="M259 1214L523 1149Q305 313 687 300Q1110 304 968 1178L1202 1270Q1351 111 687 100Q25 108 259 1214Z" />
<glyph unicode="v" glyph-name="v" horiz-adv-x="1018" d="M390 108L25 1015L229 1232L495 370L716 1184L993 1086L619 142L390 108Z" />
<glyph unicode="w" glyph-name="w" horiz-adv-x="1737" d="M888 913L649 91L441 56L25 1085L269 1256L549 381L792 1122L997 1087L1196 388L1432 1281L1712 1090L1308 114L1059 181L888 913Z" />
<glyph unicode="x" glyph-name="x" horiz-adv-x="885" d="M345 704L30 1137L198 1265L416 858L639 1266L860 1102L523 677L842 217L651 122L426 524L193 122L25 200L345 704Z" />
<glyph unicode="y" glyph-name="y" horiz-adv-x="942" d="M366 637L25 1067L207 1254L457 797L667 1374L917 1267L521 631L539 17L212 121L366 637Z" />
<glyph unicode="z" glyph-name="z" horiz-adv-x="843" d="M818 1203L360 379L797 354L792 49L34 209L571 1030L25 1100L84 1361L818 1203Z" />
<glyph unicode="{" glyph-name="braceleft" horiz-adv-x="711" d="M228 770Q305 1501 632 1504L653 1312Q421 1312 426 712T686 103L631 -105Q306 -101 235 607L25 506L44 860L228 770Z" />
<glyph unicode="|" glyph-name="bar" horiz-adv-x="293" d="M268 1489L213 -90L42 -106L25 1454L268 1489Z" />
<glyph unicode="}" glyph-name="braceright" horiz-adv-x="676" d="M651 857L634 529L476 607Q405 -101 80 -105L25 103Q279 111 284 711T58 1312L79 1504Q405 1501 482 770L651 857Z" />
<glyph unicode="~" glyph-name="asciitilde" horiz-adv-x="847" d="M80 571L25 771Q249 890 419 796T779 877L822 613Q593 448 430 565T80 571Z" />
</font>
</defs>
</svg>
